<?xml version="1.0" encoding="UTF-8"?>
<svg xmlns="http://www.w3.org/2000/svg" xmlns:xlink="http://www.w3.org/1999/xlink" width="24px" height="24px" viewBox="0 0 24 24" version="1.1">
<g id="surface1">
<path style=" stroke:none;fill-rule:nonzero;fill:rgb(99.215686%,98.039216%,86.666667%);fill-opacity:1;" d="M 10.261719 8.15625 L 13.738281 8.15625 L 13.738281 13.183594 L 10.261719 13.183594 Z M 10.261719 8.15625 "/>
<path style=" stroke:none;fill-rule:nonzero;fill:rgb(95.686275%,94.509804%,84.313725%);fill-opacity:1;" d="M 10.261719 8.15625 L 12.066406 8.15625 L 12.066406 13.183594 L 10.261719 13.183594 Z M 10.261719 8.15625 "/>
<path style=" stroke:none;fill-rule:nonzero;fill:rgb(88.627451%,47.058824%,47.45098%);fill-opacity:1;" d="M 13.65625 4.222656 C 14.097656 5.355469 13.34375 6.636719 12.128906 6.71875 C 12.085938 6.722656 12.042969 6.722656 12 6.722656 C 11.957031 6.722656 11.914062 6.722656 11.871094 6.71875 C 10.65625 6.636719 9.902344 5.355469 10.34375 4.222656 L 12 0 Z M 13.65625 4.222656 "/>
<path style=" stroke:none;fill-rule:nonzero;fill:rgb(78.039216%,41.960784%,41.960784%);fill-opacity:1;" d="M 12 6.722656 C 11.957031 6.722656 11.914062 6.722656 11.871094 6.71875 C 10.65625 6.636719 9.902344 5.355469 10.34375 4.222656 L 12 0 Z M 12 6.722656 "/>
<path style=" stroke:none;fill-rule:nonzero;fill:rgb(98.039216%,81.568627%,69.019608%);fill-opacity:1;" d="M 1.984375 24 L 1.984375 15.230469 C 1.984375 13.875 3.082031 12.777344 4.4375 12.777344 L 19.5625 12.777344 C 20.917969 12.777344 22.015625 13.875 22.015625 15.230469 L 22.015625 24 Z M 1.984375 24 "/>
<path style=" stroke:none;fill-rule:nonzero;fill:rgb(92.156863%,77.254902%,65.490196%);fill-opacity:1;" d="M 12.066406 12.777344 L 4.4375 12.777344 C 3.082031 12.777344 1.984375 13.875 1.984375 15.230469 L 1.984375 24 L 12.066406 24 Z M 12.066406 12.777344 "/>
<path style=" stroke:none;fill-rule:nonzero;fill:rgb(88.627451%,47.058824%,47.45098%);fill-opacity:1;" d="M 22.015625 24 L 22.015625 17.589844 C 21.644531 17.589844 21.34375 17.890625 21.34375 18.261719 C 21.34375 18.996094 20.746094 19.59375 20.011719 19.59375 C 19.277344 19.59375 18.679688 18.996094 18.679688 18.261719 C 18.679688 17.890625 18.378906 17.589844 18.007812 17.589844 C 17.636719 17.589844 17.335938 17.890625 17.335938 18.261719 C 17.335938 18.996094 16.738281 19.59375 16.003906 19.59375 C 15.273438 19.59375 14.675781 18.996094 14.675781 18.261719 C 14.675781 17.890625 14.375 17.589844 14.003906 17.589844 C 13.632812 17.589844 13.332031 17.890625 13.332031 18.261719 C 13.332031 18.996094 12.734375 19.59375 12 19.59375 C 11.265625 19.59375 10.667969 18.996094 10.667969 18.261719 C 10.667969 17.890625 10.367188 17.589844 9.996094 17.589844 C 9.625 17.589844 9.324219 17.890625 9.324219 18.261719 C 9.324219 18.996094 8.726562 19.59375 7.996094 19.59375 C 7.261719 19.59375 6.664062 18.996094 6.664062 18.261719 C 6.664062 17.890625 6.363281 17.589844 5.992188 17.589844 C 5.621094 17.589844 5.320312 17.890625 5.320312 18.261719 C 5.320312 18.996094 4.722656 19.59375 3.988281 19.59375 C 3.253906 19.59375 2.65625 18.996094 2.65625 18.261719 C 2.65625 17.890625 2.355469 17.589844 1.984375 17.589844 L 1.984375 24 Z M 22.015625 24 "/>
<path style=" stroke:none;fill-rule:nonzero;fill:rgb(78.039216%,41.960784%,41.960784%);fill-opacity:1;" d="M 12 19.59375 C 11.265625 19.59375 10.667969 18.996094 10.667969 18.261719 C 10.667969 17.890625 10.367188 17.589844 9.996094 17.589844 C 9.625 17.589844 9.324219 17.890625 9.324219 18.261719 C 9.324219 18.996094 8.726562 19.59375 7.996094 19.59375 C 7.261719 19.59375 6.664062 18.996094 6.664062 18.261719 C 6.664062 17.890625 6.363281 17.589844 5.992188 17.589844 C 5.621094 17.589844 5.320312 17.890625 5.320312 18.261719 C 5.320312 18.996094 4.722656 19.59375 3.988281 19.59375 C 3.253906 19.59375 2.65625 18.996094 2.65625 18.261719 C 2.65625 17.890625 2.355469 17.589844 1.984375 17.589844 L 1.984375 24 L 12 24 Z M 12 19.59375 "/>
</g>
</svg>
