<?xml version="1.0" encoding="UTF-8"?>
<svg xmlns="http://www.w3.org/2000/svg" xmlns:xlink="http://www.w3.org/1999/xlink" width="24px" height="24px" viewBox="0 0 24 24" version="1.1">
<g id="surface1">
<path style=" stroke:none;fill-rule:nonzero;fill:rgb(100%,72.156863%,42.352941%);fill-opacity:1;" d="M 0.882812 13.414062 L 0.882812 23.523438 L 23.121094 17.921875 L 23.121094 7.796875 Z M 0.882812 13.414062 "/>
<path style=" stroke:none;fill-rule:nonzero;fill:rgb(100%,72.156863%,42.352941%);fill-opacity:1;" d="M 23.117188 7.785156 C 23.121094 7.789062 23.121094 7.792969 23.121094 7.796875 L 23.121094 7.785156 Z M 23.117188 7.785156 "/>
<path style=" stroke:none;fill-rule:nonzero;fill:rgb(92.156863%,34.901961%,53.72549%);fill-opacity:1;" d="M 23.121094 7.796875 C 23.121094 7.792969 23.121094 7.789062 23.117188 7.785156 C 23.011719 5.933594 21.742188 4.101562 19.304688 2.6875 C 16.863281 1.273438 13.695312 0.535156 10.496094 0.476562 L 0.878906 13.414062 Z M 23.121094 7.796875 "/>
<path style=" stroke:none;fill-rule:nonzero;fill:rgb(23.137255%,48.235294%,75.294118%);fill-opacity:1;" d="M 0.882812 17.691406 L 0.882812 19.84375 L 23.121094 14.238281 L 23.121094 12.0625 Z M 0.882812 17.691406 "/>
<path style=" stroke:none;fill-rule:nonzero;fill:rgb(0%,0%,0%);fill-opacity:1;" d="M 23.59375 7.722656 C 23.460938 5.648438 22.027344 3.714844 19.546875 2.277344 C 17.121094 0.871094 13.910156 0.0625 10.503906 0 C 10.351562 -0.00390625 10.203125 0.0703125 10.113281 0.191406 L 0.496094 13.128906 C 0.421875 13.230469 0.390625 13.351562 0.40625 13.46875 L 0.40625 23.523438 C 0.40625 23.824219 0.726562 24.058594 1 23.988281 L 23.238281 18.382812 C 23.449219 18.332031 23.597656 18.140625 23.597656 17.921875 Z M 10.730469 0.960938 C 13.886719 1.054688 16.839844 1.8125 19.066406 3.101562 C 21.109375 4.289062 22.347656 5.808594 22.601562 7.425781 L 2.128906 12.605469 L 2.066406 12.621094 Z M 22.640625 17.546875 L 1.363281 22.910156 L 1.363281 20.214844 L 22.640625 14.851562 Z M 22.640625 13.867188 L 1.363281 19.230469 L 1.363281 18.0625 L 22.640625 12.675781 Z M 1.363281 17.078125 L 1.363281 13.789062 L 2.464844 13.507812 L 22.640625 8.414062 L 22.640625 11.691406 Z M 1.363281 17.078125 "/>
<path style=" stroke:none;fill-rule:nonzero;fill:rgb(0%,0%,0%);fill-opacity:1;" d="M 18.105469 5.15625 C 18.023438 5.15625 17.941406 5.136719 17.863281 5.089844 C 17.132812 4.667969 16.308594 4.308594 15.410156 4.019531 C 15.15625 3.9375 15.019531 3.667969 15.097656 3.417969 C 15.179688 3.164062 15.449219 3.027344 15.699219 3.109375 C 16.664062 3.417969 17.554688 3.804688 18.34375 4.265625 C 18.574219 4.398438 18.648438 4.691406 18.519531 4.917969 C 18.429688 5.070312 18.269531 5.15625 18.105469 5.15625 Z M 18.105469 5.15625 "/>
<path style=" stroke:none;fill-rule:nonzero;fill:rgb(0%,0%,0%);fill-opacity:1;" d="M 13.160156 3.46875 C 13.132812 3.46875 13.109375 3.46875 13.082031 3.464844 C 12.546875 3.375 12 3.308594 11.445312 3.269531 C 11.183594 3.25 10.984375 3.019531 11.003906 2.757812 C 11.023438 2.496094 11.253906 2.296875 11.515625 2.316406 C 12.097656 2.359375 12.675781 2.425781 13.238281 2.519531 C 13.496094 2.5625 13.675781 2.808594 13.632812 3.070312 C 13.59375 3.304688 13.390625 3.46875 13.160156 3.46875 Z M 13.160156 3.46875 "/>
<path style=" stroke:none;fill-rule:nonzero;fill:rgb(0%,0%,0%);fill-opacity:1;" d="M 14.675781 12.644531 C 14.460938 12.644531 14.265625 12.5 14.210938 12.285156 C 14.148438 12.027344 14.304688 11.765625 14.558594 11.703125 L 16.285156 11.273438 C 16.542969 11.210938 16.800781 11.363281 16.867188 11.621094 C 16.929688 11.878906 16.773438 12.136719 16.519531 12.203125 L 14.792969 12.632812 C 14.753906 12.640625 14.714844 12.644531 14.675781 12.644531 Z M 14.675781 12.644531 "/>
<path style=" stroke:none;fill-rule:nonzero;fill:rgb(0%,0%,0%);fill-opacity:1;" d="M 2.988281 15.558594 C 2.773438 15.558594 2.578125 15.414062 2.523438 15.195312 C 2.460938 14.941406 2.617188 14.679688 2.871094 14.617188 L 12.503906 12.214844 C 12.757812 12.152344 13.019531 12.308594 13.082031 12.566406 C 13.144531 12.820312 12.992188 13.082031 12.734375 13.144531 L 3.105469 15.542969 C 3.066406 15.554688 3.027344 15.558594 2.988281 15.558594 Z M 2.988281 15.558594 "/>
</g>
</svg>
