<svg id="Layer_1" data-name="Layer 1" xmlns="http://www.w3.org/2000/svg" xmlns:xlink="http://www.w3.org/1999/xlink" viewBox="0 0 512 512"><defs><style>.cls-1{fill:#fff;}.cls-2{fill:url(#linear-gradient);}.cls-3{fill:url(#linear-gradient-2);}.cls-4{fill:url(#linear-gradient-3);}</style><linearGradient id="linear-gradient" x1="256" y1="376.42" x2="256" y2="260.21" gradientUnits="userSpaceOnUse"><stop offset="0" stop-color="#f2a4ba"/><stop offset="1" stop-color="#ffdce7"/></linearGradient><linearGradient id="linear-gradient-2" y1="260.21" y2="137.54" xlink:href="#linear-gradient"/><linearGradient id="linear-gradient-3" x1="10.66" y1="256" x2="501.34" y2="256" gradientUnits="userSpaceOnUse"><stop offset="0.16" stop-color="#f96992"/><stop offset="1" stop-color="#f96992"/></linearGradient></defs><title>cake-filled</title><path class="cls-1" d="M75.22,376.42H436.78A45.19,45.19,0,0,1,482,421.61v71a0,0,0,0,1,0,0H30a0,0,0,0,1,0,0v-71A45.19,45.19,0,0,1,75.22,376.42Z"/><path class="cls-2" d="M114,260.21H398a45.19,45.19,0,0,1,45.19,45.19v71a0,0,0,0,1,0,0H68.77a0,0,0,0,1,0,0v-71A45.19,45.19,0,0,1,114,260.21Z"/><path class="cls-3" d="M256,260.21l53.57-55a41.27,41.27,0,0,0,0-56.08,36.06,36.06,0,0,0-53,0l-.53.56-.53-.56a36.08,36.08,0,0,0-53,0c-14.66,15.48-14.66,40.58,0,56.08l53.57,55"/><path class="cls-4" d="M462.6,362.46V305.4A64.64,64.64,0,0,0,398,240.84H301.93l21.72-22.28a60.63,60.63,0,0,0,0-82.69,55.41,55.41,0,0,0-40.57-17.69h0a55.57,55.57,0,0,0-10.19.94C265.44,73,241.59,31.52,203.85,0L179,29.73c21.26,17.76,45.82,46.52,54.43,88.63-1.49-.12-3-.19-4.5-.19a55.37,55.37,0,0,0-40.58,17.67c-21.58,22.79-21.58,59.89.2,82.91l21.52,22.08H114A64.64,64.64,0,0,0,49.4,305.4v57.06a64.65,64.65,0,0,0-38.74,59.16v71A19.37,19.37,0,0,0,30,512H482a19.37,19.37,0,0,0,19.37-19.37v-71A64.65,64.65,0,0,0,462.6,362.46Zm-246.08-200a16.73,16.73,0,0,1,24.87,0L256,177.94l14.6-15.47a17.09,17.09,0,0,1,12.45-5.57h0a17.09,17.09,0,0,1,12.45,5.59,21.93,21.93,0,0,1,.18,29.23L256,232.45l-39.5-40.52C209,183.94,208.95,170.45,216.52,162.45ZM88.14,305.4A25.85,25.85,0,0,1,114,279.57H398a25.85,25.85,0,0,1,25.82,25.83V357H88.14ZM462.6,473.26H49.4V421.61a25.85,25.85,0,0,1,25.82-25.83H436.78a25.85,25.85,0,0,1,25.82,25.83Z"/></svg>